<mxfile host="app.diagrams.net" modified="2021-04-25T15:12:23.495Z" agent="5.0 (Windows NT 10.0; Win64; x64) AppleWebKit/537.36 (KHTML, like Gecko) Chrome/90.0.4430.85 Safari/537.36" etag="RP41GMt8Jp-3HSqKVcmy" version="14.6.6" type="github">
  <diagram name="Page-1" id="74e2e168-ea6b-b213-b513-2b3c1d86103e">
    <mxGraphModel dx="2148" dy="1538" grid="1" gridSize="10" guides="1" tooltips="1" connect="1" arrows="1" fold="1" page="1" pageScale="1" pageWidth="1100" pageHeight="850" background="#ffffff" math="0" shadow="0">
      <root>
        <mxCell id="0" />
        <mxCell id="1" parent="0" />
        <mxCell id="Ww_m-k0TxmTu3c4wuzPJ-3" style="edgeStyle=orthogonalEdgeStyle;rounded=0;orthogonalLoop=1;jettySize=auto;html=1;exitX=0.5;exitY=1;exitDx=0;exitDy=0;entryX=0.5;entryY=0;entryDx=0;entryDy=0;" edge="1" parent="1" source="Ww_m-k0TxmTu3c4wuzPJ-1">
          <mxGeometry relative="1" as="geometry">
            <mxPoint x="150" y="330" as="targetPoint" />
          </mxGeometry>
        </mxCell>
        <mxCell id="Ww_m-k0TxmTu3c4wuzPJ-1" value="put()方法调用" style="rounded=1;whiteSpace=wrap;html=1;" vertex="1" parent="1">
          <mxGeometry x="90" y="220" width="120" height="30" as="geometry" />
        </mxCell>
        <mxCell id="Ww_m-k0TxmTu3c4wuzPJ-24" style="edgeStyle=orthogonalEdgeStyle;rounded=0;orthogonalLoop=1;jettySize=auto;html=1;exitX=1;exitY=0.5;exitDx=0;exitDy=0;entryX=0.5;entryY=1;entryDx=0;entryDy=0;" edge="1" parent="1" source="Ww_m-k0TxmTu3c4wuzPJ-5" target="Ww_m-k0TxmTu3c4wuzPJ-23">
          <mxGeometry relative="1" as="geometry" />
        </mxCell>
        <mxCell id="Ww_m-k0TxmTu3c4wuzPJ-5" value="初始化table或者执行resize()方法" style="rounded=0;whiteSpace=wrap;html=1;" vertex="1" parent="1">
          <mxGeometry x="90" y="590" width="120" height="60" as="geometry" />
        </mxCell>
        <mxCell id="Ww_m-k0TxmTu3c4wuzPJ-16" style="edgeStyle=orthogonalEdgeStyle;rounded=0;orthogonalLoop=1;jettySize=auto;html=1;exitX=0.5;exitY=1;exitDx=0;exitDy=0;entryX=0.5;entryY=0;entryDx=0;entryDy=0;" edge="1" parent="1" source="Ww_m-k0TxmTu3c4wuzPJ-9" target="Ww_m-k0TxmTu3c4wuzPJ-15">
          <mxGeometry relative="1" as="geometry" />
        </mxCell>
        <mxCell id="Ww_m-k0TxmTu3c4wuzPJ-9" value="根据hash方法获取键值key的hash值" style="rounded=0;whiteSpace=wrap;html=1;" vertex="1" parent="1">
          <mxGeometry x="90" y="330" width="120" height="60" as="geometry" />
        </mxCell>
        <mxCell id="Ww_m-k0TxmTu3c4wuzPJ-30" style="edgeStyle=orthogonalEdgeStyle;rounded=0;orthogonalLoop=1;jettySize=auto;html=1;exitX=0.5;exitY=1;exitDx=0;exitDy=0;" edge="1" parent="1" source="Ww_m-k0TxmTu3c4wuzPJ-12">
          <mxGeometry relative="1" as="geometry">
            <mxPoint x="655" y="560" as="targetPoint" />
          </mxGeometry>
        </mxCell>
        <mxCell id="Ww_m-k0TxmTu3c4wuzPJ-41" style="edgeStyle=orthogonalEdgeStyle;rounded=0;orthogonalLoop=1;jettySize=auto;html=1;exitX=1;exitY=0.5;exitDx=0;exitDy=0;" edge="1" parent="1" source="Ww_m-k0TxmTu3c4wuzPJ-12">
          <mxGeometry relative="1" as="geometry">
            <mxPoint x="870" y="455" as="targetPoint" />
          </mxGeometry>
        </mxCell>
        <mxCell id="Ww_m-k0TxmTu3c4wuzPJ-12" value="桶是否为空" style="rhombus;whiteSpace=wrap;html=1;" vertex="1" parent="1">
          <mxGeometry x="540" y="430" width="230" height="50" as="geometry" />
        </mxCell>
        <mxCell id="Ww_m-k0TxmTu3c4wuzPJ-17" style="edgeStyle=orthogonalEdgeStyle;rounded=0;orthogonalLoop=1;jettySize=auto;html=1;exitX=0.5;exitY=1;exitDx=0;exitDy=0;entryX=0.5;entryY=0;entryDx=0;entryDy=0;" edge="1" parent="1" source="Ww_m-k0TxmTu3c4wuzPJ-15" target="Ww_m-k0TxmTu3c4wuzPJ-5">
          <mxGeometry relative="1" as="geometry">
            <Array as="points">
              <mxPoint x="150" y="540" />
              <mxPoint x="150" y="540" />
            </Array>
          </mxGeometry>
        </mxCell>
        <mxCell id="Ww_m-k0TxmTu3c4wuzPJ-21" value="Y" style="edgeLabel;html=1;align=center;verticalAlign=middle;resizable=0;points=[];" vertex="1" connectable="0" parent="Ww_m-k0TxmTu3c4wuzPJ-17">
          <mxGeometry x="0.3091" y="-1" relative="1" as="geometry">
            <mxPoint x="1" y="-22" as="offset" />
          </mxGeometry>
        </mxCell>
        <mxCell id="Ww_m-k0TxmTu3c4wuzPJ-22" style="edgeStyle=orthogonalEdgeStyle;rounded=0;orthogonalLoop=1;jettySize=auto;html=1;exitX=1;exitY=0.5;exitDx=0;exitDy=0;" edge="1" parent="1" source="Ww_m-k0TxmTu3c4wuzPJ-15">
          <mxGeometry relative="1" as="geometry">
            <mxPoint x="360" y="455" as="targetPoint" />
          </mxGeometry>
        </mxCell>
        <mxCell id="Ww_m-k0TxmTu3c4wuzPJ-15" value="table未初始化或者长度为0" style="rhombus;whiteSpace=wrap;html=1;" vertex="1" parent="1">
          <mxGeometry x="35" y="430" width="230" height="50" as="geometry" />
        </mxCell>
        <mxCell id="Ww_m-k0TxmTu3c4wuzPJ-25" style="edgeStyle=orthogonalEdgeStyle;rounded=0;orthogonalLoop=1;jettySize=auto;html=1;exitX=1;exitY=0.5;exitDx=0;exitDy=0;entryX=0;entryY=0.5;entryDx=0;entryDy=0;" edge="1" parent="1" source="Ww_m-k0TxmTu3c4wuzPJ-23" target="Ww_m-k0TxmTu3c4wuzPJ-12">
          <mxGeometry relative="1" as="geometry" />
        </mxCell>
        <mxCell id="Ww_m-k0TxmTu3c4wuzPJ-23" value="&lt;span&gt;计算hash值对应的数组下标,&lt;/span&gt;&lt;span&gt;确定元素放在哪个桶中&lt;/span&gt;" style="rounded=0;whiteSpace=wrap;html=1;" vertex="1" parent="1">
          <mxGeometry x="360" y="425" width="120" height="60" as="geometry" />
        </mxCell>
        <mxCell id="Ww_m-k0TxmTu3c4wuzPJ-32" style="edgeStyle=orthogonalEdgeStyle;rounded=0;orthogonalLoop=1;jettySize=auto;html=1;exitX=0.5;exitY=1;exitDx=0;exitDy=0;entryX=0.5;entryY=0;entryDx=0;entryDy=0;" edge="1" parent="1" source="Ww_m-k0TxmTu3c4wuzPJ-31" target="Ww_m-k0TxmTu3c4wuzPJ-33">
          <mxGeometry relative="1" as="geometry">
            <mxPoint x="660" y="700" as="targetPoint" />
            <Array as="points" />
          </mxGeometry>
        </mxCell>
        <mxCell id="Ww_m-k0TxmTu3c4wuzPJ-31" value="直接插入" style="rounded=0;whiteSpace=wrap;html=1;" vertex="1" parent="1">
          <mxGeometry x="600" y="560" width="120" height="60" as="geometry" />
        </mxCell>
        <mxCell id="Ww_m-k0TxmTu3c4wuzPJ-36" style="edgeStyle=orthogonalEdgeStyle;rounded=0;orthogonalLoop=1;jettySize=auto;html=1;exitX=0.5;exitY=1;exitDx=0;exitDy=0;entryX=0.563;entryY=-0.017;entryDx=0;entryDy=0;entryPerimeter=0;" edge="1" parent="1" source="Ww_m-k0TxmTu3c4wuzPJ-33" target="Ww_m-k0TxmTu3c4wuzPJ-37">
          <mxGeometry relative="1" as="geometry">
            <mxPoint x="660" y="800" as="targetPoint" />
          </mxGeometry>
        </mxCell>
        <mxCell id="Ww_m-k0TxmTu3c4wuzPJ-33" value="size++后是否大于thredhold" style="rhombus;whiteSpace=wrap;html=1;" vertex="1" parent="1">
          <mxGeometry x="540" y="990" width="230" height="50" as="geometry" />
        </mxCell>
        <mxCell id="Ww_m-k0TxmTu3c4wuzPJ-34" value="Y" style="text;html=1;align=center;verticalAlign=middle;resizable=0;points=[];autosize=1;strokeColor=none;" vertex="1" parent="1">
          <mxGeometry x="660" y="500" width="20" height="20" as="geometry" />
        </mxCell>
        <mxCell id="Ww_m-k0TxmTu3c4wuzPJ-37" value="进行扩容" style="rounded=0;whiteSpace=wrap;html=1;" vertex="1" parent="1">
          <mxGeometry x="580" y="1260" width="120" height="60" as="geometry" />
        </mxCell>
        <mxCell id="Ww_m-k0TxmTu3c4wuzPJ-38" value="Y" style="text;html=1;align=center;verticalAlign=middle;resizable=0;points=[];autosize=1;strokeColor=none;" vertex="1" parent="1">
          <mxGeometry x="660" y="760" width="20" height="20" as="geometry" />
        </mxCell>
        <mxCell id="Ww_m-k0TxmTu3c4wuzPJ-52" style="edgeStyle=orthogonalEdgeStyle;rounded=0;orthogonalLoop=1;jettySize=auto;html=1;exitX=0.5;exitY=1;exitDx=0;exitDy=0;" edge="1" parent="1" source="Ww_m-k0TxmTu3c4wuzPJ-44">
          <mxGeometry relative="1" as="geometry">
            <mxPoint x="985" y="570" as="targetPoint" />
          </mxGeometry>
        </mxCell>
        <mxCell id="Ww_m-k0TxmTu3c4wuzPJ-59" style="edgeStyle=orthogonalEdgeStyle;rounded=0;orthogonalLoop=1;jettySize=auto;html=1;exitX=0.5;exitY=1;exitDx=0;exitDy=0;" edge="1" parent="1" source="Ww_m-k0TxmTu3c4wuzPJ-44">
          <mxGeometry relative="1" as="geometry">
            <mxPoint x="985" y="560" as="targetPoint" />
          </mxGeometry>
        </mxCell>
        <mxCell id="Ww_m-k0TxmTu3c4wuzPJ-62" style="edgeStyle=orthogonalEdgeStyle;rounded=0;orthogonalLoop=1;jettySize=auto;html=1;exitX=1;exitY=0.5;exitDx=0;exitDy=0;entryX=0;entryY=0.5;entryDx=0;entryDy=0;" edge="1" parent="1" source="Ww_m-k0TxmTu3c4wuzPJ-44" target="Ww_m-k0TxmTu3c4wuzPJ-61">
          <mxGeometry relative="1" as="geometry" />
        </mxCell>
        <mxCell id="Ww_m-k0TxmTu3c4wuzPJ-44" value="hash值相等, 并且key地址相同或者key不为null时, keyequals方法为true" style="rhombus;whiteSpace=wrap;html=1;" vertex="1" parent="1">
          <mxGeometry x="870" y="430" width="230" height="50" as="geometry" />
        </mxCell>
        <mxCell id="Ww_m-k0TxmTu3c4wuzPJ-45" value="N" style="text;html=1;align=center;verticalAlign=middle;resizable=0;points=[];autosize=1;strokeColor=none;" vertex="1" parent="1">
          <mxGeometry x="800" y="430" width="20" height="20" as="geometry" />
        </mxCell>
        <mxCell id="Ww_m-k0TxmTu3c4wuzPJ-51" value="N" style="text;html=1;align=center;verticalAlign=middle;resizable=0;points=[];autosize=1;strokeColor=none;" vertex="1" parent="1">
          <mxGeometry x="800" y="700" width="20" height="20" as="geometry" />
        </mxCell>
        <mxCell id="Ww_m-k0TxmTu3c4wuzPJ-53" value="Y" style="text;html=1;align=center;verticalAlign=middle;resizable=0;points=[];autosize=1;strokeColor=none;" vertex="1" parent="1">
          <mxGeometry x="990" y="510" width="20" height="20" as="geometry" />
        </mxCell>
        <mxCell id="Ww_m-k0TxmTu3c4wuzPJ-60" style="edgeStyle=orthogonalEdgeStyle;rounded=0;orthogonalLoop=1;jettySize=auto;html=1;exitX=0.5;exitY=1;exitDx=0;exitDy=0;" edge="1" parent="1" source="Ww_m-k0TxmTu3c4wuzPJ-54">
          <mxGeometry relative="1" as="geometry">
            <mxPoint x="660" y="660" as="targetPoint" />
            <Array as="points">
              <mxPoint x="985" y="660" />
              <mxPoint x="660" y="660" />
            </Array>
          </mxGeometry>
        </mxCell>
        <mxCell id="Ww_m-k0TxmTu3c4wuzPJ-54" value="直接进行替换" style="rounded=0;whiteSpace=wrap;html=1;" vertex="1" parent="1">
          <mxGeometry x="925" y="560" width="120" height="60" as="geometry" />
        </mxCell>
        <mxCell id="Ww_m-k0TxmTu3c4wuzPJ-64" style="edgeStyle=orthogonalEdgeStyle;rounded=0;orthogonalLoop=1;jettySize=auto;html=1;exitX=0.5;exitY=1;exitDx=0;exitDy=0;entryX=0.5;entryY=0;entryDx=0;entryDy=0;" edge="1" parent="1" source="Ww_m-k0TxmTu3c4wuzPJ-61" target="Ww_m-k0TxmTu3c4wuzPJ-65">
          <mxGeometry relative="1" as="geometry">
            <mxPoint x="1295" y="560" as="targetPoint" />
          </mxGeometry>
        </mxCell>
        <mxCell id="Ww_m-k0TxmTu3c4wuzPJ-68" style="edgeStyle=orthogonalEdgeStyle;rounded=0;orthogonalLoop=1;jettySize=auto;html=1;exitX=1;exitY=0.5;exitDx=0;exitDy=0;entryX=0;entryY=0.5;entryDx=0;entryDy=0;" edge="1" parent="1" source="Ww_m-k0TxmTu3c4wuzPJ-61" target="Ww_m-k0TxmTu3c4wuzPJ-67">
          <mxGeometry relative="1" as="geometry">
            <mxPoint x="1480" y="455" as="targetPoint" />
          </mxGeometry>
        </mxCell>
        <mxCell id="Ww_m-k0TxmTu3c4wuzPJ-61" value="是否是红黑树节点" style="rhombus;whiteSpace=wrap;html=1;" vertex="1" parent="1">
          <mxGeometry x="1180" y="430" width="230" height="50" as="geometry" />
        </mxCell>
        <mxCell id="Ww_m-k0TxmTu3c4wuzPJ-63" value="N" style="text;html=1;align=center;verticalAlign=middle;resizable=0;points=[];autosize=1;strokeColor=none;" vertex="1" parent="1">
          <mxGeometry x="1130" y="430" width="20" height="20" as="geometry" />
        </mxCell>
        <mxCell id="Ww_m-k0TxmTu3c4wuzPJ-81" style="edgeStyle=orthogonalEdgeStyle;rounded=0;orthogonalLoop=1;jettySize=auto;html=1;exitX=0.5;exitY=1;exitDx=0;exitDy=0;" edge="1" parent="1" source="Ww_m-k0TxmTu3c4wuzPJ-65">
          <mxGeometry relative="1" as="geometry">
            <mxPoint x="1295" y="1010" as="targetPoint" />
          </mxGeometry>
        </mxCell>
        <mxCell id="Ww_m-k0TxmTu3c4wuzPJ-65" value="加入红黑树" style="rounded=0;whiteSpace=wrap;html=1;" vertex="1" parent="1">
          <mxGeometry x="1235" y="720" width="120" height="60" as="geometry" />
        </mxCell>
        <mxCell id="Ww_m-k0TxmTu3c4wuzPJ-66" value="Y" style="text;html=1;align=center;verticalAlign=middle;resizable=0;points=[];autosize=1;strokeColor=none;" vertex="1" parent="1">
          <mxGeometry x="1310" y="600" width="20" height="20" as="geometry" />
        </mxCell>
        <mxCell id="Ww_m-k0TxmTu3c4wuzPJ-70" style="edgeStyle=orthogonalEdgeStyle;rounded=0;orthogonalLoop=1;jettySize=auto;html=1;exitX=0.5;exitY=1;exitDx=0;exitDy=0;entryX=0.5;entryY=0;entryDx=0;entryDy=0;" edge="1" parent="1" source="Ww_m-k0TxmTu3c4wuzPJ-67" target="Ww_m-k0TxmTu3c4wuzPJ-69">
          <mxGeometry relative="1" as="geometry" />
        </mxCell>
        <mxCell id="Ww_m-k0TxmTu3c4wuzPJ-67" value="遍历插入链表" style="rounded=0;whiteSpace=wrap;html=1;" vertex="1" parent="1">
          <mxGeometry x="1520" y="425" width="120" height="60" as="geometry" />
        </mxCell>
        <mxCell id="Ww_m-k0TxmTu3c4wuzPJ-71" style="edgeStyle=orthogonalEdgeStyle;rounded=0;orthogonalLoop=1;jettySize=auto;html=1;exitX=0.5;exitY=1;exitDx=0;exitDy=0;" edge="1" parent="1" source="Ww_m-k0TxmTu3c4wuzPJ-69">
          <mxGeometry relative="1" as="geometry">
            <mxPoint x="1580" y="720" as="targetPoint" />
          </mxGeometry>
        </mxCell>
        <mxCell id="Ww_m-k0TxmTu3c4wuzPJ-82" style="edgeStyle=orthogonalEdgeStyle;rounded=0;orthogonalLoop=1;jettySize=auto;html=1;exitX=1;exitY=0.5;exitDx=0;exitDy=0;entryX=1;entryY=0.5;entryDx=0;entryDy=0;" edge="1" parent="1" source="Ww_m-k0TxmTu3c4wuzPJ-69" target="Ww_m-k0TxmTu3c4wuzPJ-33">
          <mxGeometry relative="1" as="geometry">
            <mxPoint x="1010" y="1270" as="targetPoint" />
            <Array as="points">
              <mxPoint x="1810" y="585" />
              <mxPoint x="1810" y="1015" />
            </Array>
          </mxGeometry>
        </mxCell>
        <mxCell id="Ww_m-k0TxmTu3c4wuzPJ-69" value="链表长度是否大于8" style="rhombus;whiteSpace=wrap;html=1;" vertex="1" parent="1">
          <mxGeometry x="1465" y="560" width="230" height="50" as="geometry" />
        </mxCell>
        <mxCell id="Ww_m-k0TxmTu3c4wuzPJ-72" value="Y" style="text;html=1;align=center;verticalAlign=middle;resizable=0;points=[];autosize=1;strokeColor=none;" vertex="1" parent="1">
          <mxGeometry x="1580" y="650" width="20" height="20" as="geometry" />
        </mxCell>
        <mxCell id="Ww_m-k0TxmTu3c4wuzPJ-75" style="edgeStyle=orthogonalEdgeStyle;rounded=0;orthogonalLoop=1;jettySize=auto;html=1;exitX=0;exitY=0.5;exitDx=0;exitDy=0;entryX=1;entryY=0.5;entryDx=0;entryDy=0;" edge="1" parent="1" source="Ww_m-k0TxmTu3c4wuzPJ-74" target="Ww_m-k0TxmTu3c4wuzPJ-65">
          <mxGeometry relative="1" as="geometry" />
        </mxCell>
        <mxCell id="Ww_m-k0TxmTu3c4wuzPJ-74" value="树化操作, 转换为红黑树" style="rounded=0;whiteSpace=wrap;html=1;" vertex="1" parent="1">
          <mxGeometry x="1520" y="720" width="120" height="60" as="geometry" />
        </mxCell>
        <mxCell id="Ww_m-k0TxmTu3c4wuzPJ-85" value="N" style="text;html=1;align=center;verticalAlign=middle;resizable=0;points=[];autosize=1;strokeColor=none;" vertex="1" parent="1">
          <mxGeometry x="1720" y="540" width="20" height="20" as="geometry" />
        </mxCell>
      </root>
    </mxGraphModel>
  </diagram>
</mxfile>
